<svg version="1.1" id="Layer_1" xmlns="http://www.w3.org/2000/svg" xmlns:xlink="http://www.w3.org/1999/xlink" x="0px" y="0px"
	 width="100%" viewBox="0 0 1061 1037" enable-background="new 0 0 1061 1037" xml:space="preserve">
<path fill="#FFFFFF" opacity="1.000000" stroke="none" 
	d="
M568.000000,1038.000000 
	C378.689117,1038.000000 189.878220,1038.000000 1.033665,1038.000000 
	C1.033665,692.396851 1.033665,346.793732 1.033665,1.095289 
	C354.561096,1.095289 708.122192,1.095289 1061.841675,1.095289 
	C1061.841675,346.666595 1061.841675,692.333313 1061.841675,1038.000000 
	C897.459961,1038.000000 732.979980,1038.000000 568.000000,1038.000000 
M576.771851,685.057800 
	C600.615845,676.301941 619.438416,660.850220 634.887085,641.064575 
	C656.989868,612.756897 665.230469,579.716736 666.821228,544.642212 
	C668.043335,517.695496 663.610718,491.303802 657.817688,465.098511 
	C656.984070,461.327667 655.530273,460.285187 651.620911,461.577637 
	C630.684326,468.499176 611.812683,479.149445 594.300537,492.413116 
	C591.620544,494.442902 591.958801,496.215363 593.450928,498.724243 
	C602.261169,513.538452 608.876770,529.298523 613.451050,545.917358 
	C620.208496,570.467712 622.684814,595.265137 616.915344,620.345154 
	C611.066284,645.771362 599.336060,667.642639 577.473938,683.081726 
	C576.843140,683.527222 576.466003,684.331665 575.464355,684.937927 
	C575.174011,685.079407 574.883728,685.220886 574.593384,685.362366 
	C575.066711,685.247864 575.539978,685.133362 576.771851,685.057800 
M492.128265,685.512817 
	C492.533600,685.491150 492.938904,685.469482 493.344238,685.447876 
	C492.902893,685.291748 492.461578,685.135681 491.742645,684.367798 
	C487.454620,680.949524 482.681885,677.988586 478.956116,674.039795 
	C452.019562,645.490479 444.054047,610.926636 448.349976,572.999207 
	C451.385101,546.203125 460.354645,521.233887 474.554504,498.260590 
	C476.368317,495.326111 475.707397,493.804413 473.247711,492.173767 
	C465.349182,486.937347 457.648071,481.376862 449.543091,476.484314 
	C437.704224,469.337952 425.110779,463.790802 410.812439,460.128937 
	C409.006104,468.965576 407.052338,477.501129 405.538757,486.114075 
	C400.383453,515.449585 398.810211,544.862915 404.019287,574.395203 
	C411.568756,617.196045 432.104584,651.607605 469.524078,674.789124 
	C476.460754,679.086487 484.465393,681.660034 492.128265,685.512817 
M343.007935,132.474014 
	C337.640503,137.160309 332.027954,141.606110 327.052612,146.677094 
	C325.528259,148.230728 325.750946,151.498444 325.173584,153.981201 
	C327.615356,154.442444 330.228210,155.711716 332.471802,155.236786 
	C350.008636,151.524475 367.351166,146.719666 385.012665,143.841690 
	C394.342773,142.321304 404.221130,143.606125 413.788544,144.394211 
	C417.292755,144.682877 421.779236,146.142929 421.964478,151.060135 
	C422.140533,155.731934 418.347046,157.720520 414.691284,158.828644 
	C408.989288,160.557037 403.151611,162.158142 397.257233,162.877548 
	C368.412048,166.398102 340.207520,172.199066 313.437500,184.005646 
	C282.705231,197.559738 255.919067,216.055603 236.471268,244.021576 
	C219.818634,267.968079 213.516922,294.157257 218.756500,323.089844 
	C221.940643,340.672455 229.497284,356.165314 239.446060,370.767487 
	C247.030334,381.899231 254.659546,393.039062 261.494843,404.631653 
	C268.530701,416.564484 270.237366,430.302399 273.043152,443.649261 
	C275.342194,454.585724 283.975342,457.715576 292.184753,450.209442 
	C298.754364,444.202667 304.500641,437.149780 309.867218,430.001709 
	C323.082428,412.399719 336.696228,395.128815 352.789612,380.080200 
	C383.831573,351.053558 419.056427,327.643280 455.135223,305.514069 
	C488.061310,285.318604 521.074951,265.293243 552.004761,242.055450 
	C575.036804,224.751297 596.528442,205.977188 610.957092,180.489410 
	C618.503967,167.158127 623.178284,153.077301 619.361206,137.534103 
	C614.479858,117.657082 600.524353,105.921249 582.704163,98.106041 
	C562.228149,89.126091 540.318726,87.066246 518.349976,86.237045 
	C494.153687,85.323769 470.217407,88.353584 446.511017,93.033607 
	C410.019653,100.237602 374.928497,111.218300 343.007935,132.474014 
M851.854614,665.775146 
	C849.065308,657.279175 845.688049,648.919373 843.677185,640.242981 
	C842.136414,633.595215 844.830933,627.490112 851.206543,624.254761 
	C856.812256,621.410034 862.843262,619.399719 868.698486,617.050842 
	C877.020813,613.712158 885.778748,611.178162 893.591003,606.909973 
	C908.167603,598.946228 911.883423,584.754761 903.872925,570.281311 
	C900.735474,564.612610 897.383118,558.909058 893.191101,554.026245 
	C889.834045,550.116028 885.471680,546.543762 880.830627,544.367065 
	C870.156982,539.361084 858.648865,538.805847 847.062622,540.551758 
	C827.898682,543.439453 812.186279,553.292114 797.848450,565.580750 
	C780.042908,580.841431 765.290222,598.976807 750.882202,617.318237 
	C715.236938,662.694885 671.709290,697.379700 617.564270,718.459106 
	C595.250183,727.146301 573.065979,736.418762 551.636536,747.063477 
	C524.362976,760.611145 504.071686,781.646240 492.382385,810.173218 
	C481.455627,836.839233 480.358826,864.589600 484.502563,892.700562 
	C491.049347,937.113647 508.901917,976.880615 534.758179,1013.279419 
	C536.939819,1016.350586 539.117737,1019.424316 541.297424,1022.496887 
	C537.704285,1000.283264 536.999390,978.238770 538.964172,956.081787 
	C541.116699,931.808228 546.489624,908.335938 557.710571,886.583801 
	C567.816040,866.994141 581.672119,851.045349 603.032349,842.852356 
	C620.073547,836.316040 637.582214,836.348389 655.248108,838.498718 
	C684.323486,842.037842 713.331055,846.166260 742.441833,849.368103 
	C757.731140,851.049683 773.097473,850.290466 787.878906,845.148865 
	C810.201721,837.384033 820.974548,820.180115 818.258728,796.780029 
	C817.337402,788.842163 816.320557,780.915344 815.423218,772.974915 
	C813.936401,759.818359 817.026855,748.500305 828.499146,740.523071 
	C830.818542,738.910217 832.970886,737.043274 835.114258,735.193787 
	C843.054138,728.342529 844.351990,721.888123 839.375610,712.585876 
	C837.189636,708.499695 834.506592,704.679382 831.879333,700.465881 
	C837.124146,696.198608 842.519226,692.288818 847.340332,687.767029 
	C853.581970,681.912903 855.974487,674.817810 851.854614,665.775146 
M361.884430,676.642334 
	C298.419189,630.825500 274.459320,567.447388 279.696381,490.499023 
	C277.998688,491.954620 276.712250,492.940674 275.559509,494.063873 
	C262.731964,506.562927 251.540924,520.411377 242.128006,535.629333 
	C218.716049,573.479797 204.093765,614.339966 200.700928,658.919006 
	C198.238068,691.278992 201.620255,722.846741 215.192856,752.675720 
	C231.815094,789.206726 258.987823,813.349854 298.896118,821.661743 
	C326.216064,827.351746 352.936646,823.484497 379.195709,815.323608 
	C416.569763,803.708191 449.387177,783.433289 481.039886,761.061279 
	C502.790253,745.688232 524.350220,730.046021 546.078918,714.642029 
	C549.620728,712.131104 553.596802,710.232727 557.372131,708.051270 
	C548.493713,707.522095 539.907654,707.874512 531.352173,708.591858 
	C505.629608,710.748779 479.953888,713.314575 454.094849,710.132141 
	C421.002106,706.059448 390.196045,695.893860 361.884430,676.642334 
M458.260223,560.881470 
	C458.029938,562.191406 457.804260,563.502197 457.568604,564.811157 
	C453.244080,588.831726 453.995392,612.507141 462.981659,635.462158 
	C474.339935,664.476318 493.749664,684.960999 524.934753,692.407776 
	C528.885925,693.351257 533.241699,693.883240 537.207214,693.277771 
	C564.315552,689.138672 583.654053,673.677185 597.202515,650.541260 
	C609.035889,630.334167 613.531006,608.351013 612.208374,584.980164 
	C611.057495,564.642700 606.082825,545.320251 598.314514,526.602295 
	C587.624084,500.843353 572.374634,477.894989 554.824036,456.413269 
	C548.556091,448.741394 541.702881,441.547791 535.160095,434.184692 
	C510.759552,453.874786 468.816498,508.499390 458.260223,560.881470 
M361.635223,427.148743 
	C357.543701,435.028595 353.452209,442.908447 349.360687,450.788330 
	C349.845032,451.072815 350.329407,451.357300 350.813751,451.641785 
	C351.752167,450.407501 352.638916,449.129578 353.637634,447.946198 
	C358.893463,441.718109 363.676849,434.988953 369.541443,429.395386 
	C390.992401,408.935760 416.416138,395.319824 445.328339,389.116119 
	C467.887787,384.275513 490.778107,380.975525 513.523438,377.002655 
	C544.154907,371.652313 574.006531,363.885132 601.512512,348.781738 
	C626.146729,335.255310 647.357422,317.750702 662.310242,293.750214 
	C692.537170,245.233673 696.507935,193.629456 678.655640,139.937836 
	C676.212341,132.589462 672.313965,125.724922 669.089294,118.636375 
	C667.893677,122.938446 668.072388,126.777634 667.843384,130.592346 
	C667.614868,134.399445 667.139771,138.209763 666.494995,141.971039 
	C660.083008,179.374451 642.013855,210.434250 615.569458,237.269806 
	C588.550415,264.688599 556.235779,284.330017 522.895081,302.703125 
	C496.073242,317.483917 468.992615,331.882507 442.895264,347.868439 
	C410.177673,367.909515 382.012573,393.150330 361.635223,427.148743 
M678.359680,660.892395 
	C720.446777,624.326294 737.070312,575.447266 746.422668,522.164612 
	C738.061462,521.433594 730.763000,519.975586 723.555237,520.335266 
	C708.320190,521.095398 693.133423,522.815063 677.924927,524.118896 
	C674.262268,524.432861 674.027283,526.769592 674.131653,529.757751 
	C674.838135,549.975159 673.118103,569.958679 667.950867,589.573792 
	C657.487122,629.294434 635.807007,661.053040 600.139893,682.020874 
	C588.416992,688.912415 575.168030,693.208252 561.972229,698.972656 
	C575.768250,697.822021 589.406982,697.566101 602.732178,695.390076 
	C630.695374,690.823669 655.600952,678.904846 678.359680,660.892395 
M427.063995,684.477539 
	C451.854797,694.510071 477.592560,698.718384 504.293152,697.169250 
	C500.981262,695.750488 497.528778,694.942383 494.149841,693.896484 
	C490.496277,692.765564 486.825684,691.614990 483.309692,690.125549 
	C443.843994,673.406921 418.004242,644.025940 403.906372,603.976196 
	C395.465057,579.995850 392.968719,555.065918 393.193695,529.803162 
	C393.221619,526.666260 392.666718,525.347900 389.128052,524.633118 
	C371.203156,521.012512 353.125977,520.438599 334.960907,521.163757 
	C330.758148,521.331543 326.582672,522.183899 322.423370,522.717590 
	C326.302917,555.290955 338.323456,592.378235 355.163788,620.102173 
	C372.459137,648.575195 395.311188,670.939941 427.063995,684.477539 
M188.139008,513.503357 
	C204.500504,521.075500 220.972076,516.366821 231.966461,500.974579 
	C248.850891,477.336365 249.692749,440.276428 233.898636,415.917480 
	C224.769775,401.838226 209.567856,395.118103 194.932999,399.093018 
	C183.416519,402.220947 175.857910,410.281830 170.340271,420.413513 
	C161.648376,436.373779 159.371475,453.512543 162.418320,471.214142 
	C165.353958,488.269592 171.923843,503.476929 188.139008,513.503357 
z"/>
<path fill="#93BAB5" opacity="1.000000" stroke="none" 
	d="
M343.294800,132.255630 
	C374.928497,111.218300 410.019653,100.237602 446.511017,93.033607 
	C470.217407,88.353584 494.153687,85.323769 518.349976,86.237045 
	C540.318726,87.066246 562.228149,89.126091 582.704163,98.106041 
	C600.524353,105.921249 614.479858,117.657082 619.361206,137.534103 
	C623.178284,153.077301 618.503967,167.158127 610.957092,180.489410 
	C596.528442,205.977188 575.036804,224.751297 552.004761,242.055450 
	C521.074951,265.293243 488.061310,285.318604 455.135223,305.514069 
	C419.056427,327.643280 383.831573,351.053558 352.789612,380.080200 
	C336.696228,395.128815 323.082428,412.399719 309.867218,430.001709 
	C304.500641,437.149780 298.754364,444.202667 292.184753,450.209442 
	C283.975342,457.715576 275.342194,454.585724 273.043152,443.649261 
	C270.237366,430.302399 268.530701,416.564484 261.494843,404.631653 
	C254.659546,393.039062 247.030334,381.899231 239.446060,370.767487 
	C229.497284,356.165314 221.940643,340.672455 218.756500,323.089844 
	C213.516922,294.157257 219.818634,267.968079 236.471268,244.021576 
	C255.919067,216.055603 282.705231,197.559738 313.437500,184.005646 
	C340.207520,172.199066 368.412048,166.398102 397.257233,162.877548 
	C403.151611,162.158142 408.989288,160.557037 414.691284,158.828644 
	C418.347046,157.720520 422.140533,155.731934 421.964478,151.060135 
	C421.779236,146.142929 417.292755,144.682877 413.788544,144.394211 
	C404.221130,143.606125 394.342773,142.321304 385.012665,143.841690 
	C367.351166,146.719666 350.008636,151.524475 332.471802,155.236786 
	C330.228210,155.711716 327.615356,154.442444 325.173584,153.981201 
	C325.750946,151.498444 325.528259,148.230728 327.052612,146.677094 
	C332.027954,141.606110 337.640503,137.160309 343.294800,132.255630 
z"/>
<path fill="#639194" opacity="1.000000" stroke="none" 
	d="
M851.996765,666.140808 
	C855.974487,674.817810 853.581970,681.912903 847.340332,687.767029 
	C842.519226,692.288818 837.124146,696.198608 831.879333,700.465881 
	C834.506592,704.679382 837.189636,708.499695 839.375610,712.585876 
	C844.351990,721.888123 843.054138,728.342529 835.114258,735.193787 
	C832.970886,737.043274 830.818542,738.910217 828.499146,740.523071 
	C817.026855,748.500305 813.936401,759.818359 815.423218,772.974915 
	C816.320557,780.915344 817.337402,788.842163 818.258728,796.780029 
	C820.974548,820.180115 810.201721,837.384033 787.878906,845.148865 
	C773.097473,850.290466 757.731140,851.049683 742.441833,849.368103 
	C713.331055,846.166260 684.323486,842.037842 655.248108,838.498718 
	C637.582214,836.348389 620.073547,836.316040 603.032349,842.852356 
	C581.672119,851.045349 567.816040,866.994141 557.710571,886.583801 
	C546.489624,908.335938 541.116699,931.808228 538.964172,956.081787 
	C536.999390,978.238770 537.704285,1000.283264 541.297424,1022.496887 
	C539.117737,1019.424316 536.939819,1016.350586 534.758179,1013.279419 
	C508.901917,976.880615 491.049347,937.113647 484.502563,892.700562 
	C480.358826,864.589600 481.455627,836.839233 492.382385,810.173218 
	C504.071686,781.646240 524.362976,760.611145 551.636536,747.063477 
	C573.065979,736.418762 595.250183,727.146301 617.564270,718.459106 
	C671.709290,697.379700 715.236938,662.694885 750.882202,617.318237 
	C765.290222,598.976807 780.042908,580.841431 797.848450,565.580750 
	C812.186279,553.292114 827.898682,543.439453 847.062622,540.551758 
	C858.648865,538.805847 870.156982,539.361084 880.830627,544.367065 
	C885.471680,546.543762 889.834045,550.116028 893.191101,554.026245 
	C897.383118,558.909058 900.735474,564.612610 903.872925,570.281311 
	C911.883423,584.754761 908.167603,598.946228 893.591003,606.909973 
	C885.778748,611.178162 877.020813,613.712158 868.698486,617.050842 
	C862.843262,619.399719 856.812256,621.410034 851.206543,624.254761 
	C844.830933,627.490112 842.136414,633.595215 843.677185,640.242981 
	C845.688049,648.919373 849.065308,657.279175 851.996765,666.140808 
z"/>
<path fill="#4E7A7F" opacity="1.000000" stroke="none" 
	d="
M362.184479,676.841431 
	C390.196045,695.893860 421.002106,706.059448 454.094849,710.132141 
	C479.953888,713.314575 505.629608,710.748779 531.352173,708.591858 
	C539.907654,707.874512 548.493713,707.522095 557.372131,708.051270 
	C553.596802,710.232727 549.620728,712.131104 546.078918,714.642029 
	C524.350220,730.046021 502.790253,745.688232 481.039886,761.061279 
	C449.387177,783.433289 416.569763,803.708191 379.195709,815.323608 
	C352.936646,823.484497 326.216064,827.351746 298.896118,821.661743 
	C258.987823,813.349854 231.815094,789.206726 215.192856,752.675720 
	C201.620255,722.846741 198.238068,691.278992 200.700928,658.919006 
	C204.093765,614.339966 218.716049,573.479797 242.128006,535.629333 
	C251.540924,520.411377 262.731964,506.562927 275.559509,494.063873 
	C276.712250,492.940674 277.998688,491.954620 279.696381,490.499023 
	C274.459320,567.447388 298.419189,630.825500 362.184479,676.841431 
z"/>
<path fill="#D1959D" opacity="1.000000" stroke="none" 
	d="
M458.393677,560.482300 
	C468.816498,508.499390 510.759552,453.874786 535.160095,434.184692 
	C541.702881,441.547791 548.556091,448.741394 554.824036,456.413269 
	C572.374634,477.894989 587.624084,500.843353 598.314514,526.602295 
	C606.082825,545.320251 611.057495,564.642700 612.208374,584.980164 
	C613.531006,608.351013 609.035889,630.334167 597.202515,650.541260 
	C583.654053,673.677185 564.315552,689.138672 537.207214,693.277771 
	C533.241699,693.883240 528.885925,693.351257 524.934753,692.407776 
	C493.749664,684.960999 474.339935,664.476318 462.981659,635.462158 
	C453.995392,612.507141 453.244080,588.831726 457.568604,564.811157 
	C457.804260,563.502197 458.029938,562.191406 458.393677,560.482300 
z"/>
<path fill="#94BAB5" opacity="1.000000" stroke="none" 
	d="
M361.840179,426.848328 
	C382.012573,393.150330 410.177673,367.909515 442.895264,347.868439 
	C468.992615,331.882507 496.073242,317.483917 522.895081,302.703125 
	C556.235779,284.330017 588.550415,264.688599 615.569458,237.269806 
	C642.013855,210.434250 660.083008,179.374451 666.494995,141.971039 
	C667.139771,138.209763 667.614868,134.399445 667.843384,130.592346 
	C668.072388,126.777634 667.893677,122.938446 669.089294,118.636375 
	C672.313965,125.724922 676.212341,132.589462 678.655640,139.937836 
	C696.507935,193.629456 692.537170,245.233673 662.310242,293.750214 
	C647.357422,317.750702 626.146729,335.255310 601.512512,348.781738 
	C574.006531,363.885132 544.154907,371.652313 513.523438,377.002655 
	C490.778107,380.975525 467.887787,384.275513 445.328339,389.116119 
	C416.416138,395.319824 390.992401,408.935760 369.541443,429.395386 
	C363.676849,434.988953 358.893463,441.718109 353.637634,447.946198 
	C352.638916,449.129578 351.752167,450.407501 350.813751,451.641785 
	C350.329407,451.357300 349.845032,451.072815 349.360687,450.788330 
	C353.452209,442.908447 357.543701,435.028595 361.840179,426.848328 
z"/>
<path fill="#CF949C" opacity="1.000000" stroke="none" 
	d="
M678.085571,661.117615 
	C655.600952,678.904846 630.695374,690.823669 602.732178,695.390076 
	C589.406982,697.566101 575.768250,697.822021 561.972229,698.972656 
	C575.168030,693.208252 588.416992,688.912415 600.139893,682.020874 
	C635.807007,661.053040 657.487122,629.294434 667.950867,589.573792 
	C673.118103,569.958679 674.838135,549.975159 674.131653,529.757751 
	C674.027283,526.769592 674.262268,524.432861 677.924927,524.118896 
	C693.133423,522.815063 708.320190,521.095398 723.555237,520.335266 
	C730.763000,519.975586 738.061462,521.433594 746.422668,522.164612 
	C737.070312,575.447266 720.446777,624.326294 678.085571,661.117615 
z"/>
<path fill="#D0959D" opacity="1.000000" stroke="none" 
	d="
M426.714233,684.315308 
	C395.311188,670.939941 372.459137,648.575195 355.163788,620.102173 
	C338.323456,592.378235 326.302917,555.290955 322.423370,522.717590 
	C326.582672,522.183899 330.758148,521.331543 334.960907,521.163757 
	C353.125977,520.438599 371.203156,521.012512 389.128052,524.633118 
	C392.666718,525.347900 393.221619,526.666260 393.193695,529.803162 
	C392.968719,555.065918 395.465057,579.995850 403.906372,603.976196 
	C418.004242,644.025940 443.843994,673.406921 483.309692,690.125549 
	C486.825684,691.614990 490.496277,692.765564 494.149841,693.896484 
	C497.528778,694.942383 500.981262,695.750488 504.293152,697.169250 
	C477.592560,698.718384 451.854797,694.510071 426.714233,684.315308 
z"/>
<path fill="#CF959D" opacity="1.000000" stroke="none" 
	d="
M491.977142,685.029175 
	C484.465393,681.660034 476.460754,679.086487 469.524078,674.789124 
	C432.104584,651.607605 411.568756,617.196045 404.019287,574.395203 
	C398.810211,544.862915 400.383453,515.449585 405.538757,486.114075 
	C407.052338,477.501129 409.006104,468.965576 410.812439,460.128937 
	C425.110779,463.790802 437.704224,469.337952 449.543091,476.484314 
	C457.648071,481.376862 465.349182,486.937347 473.247711,492.173767 
	C475.707397,493.804413 476.368317,495.326111 474.554504,498.260590 
	C460.354645,521.233887 451.385101,546.203125 448.349976,572.999207 
	C444.054047,610.926636 452.019562,645.490479 478.956116,674.039795 
	C482.681885,677.988586 487.454620,680.949524 491.870239,684.685425 
	C491.997803,685.003113 491.977142,685.029175 491.977142,685.029175 
z"/>
<path fill="#CF959D" opacity="1.000000" stroke="none" 
	d="
M575.970581,684.968750 
	C576.466003,684.331665 576.843140,683.527222 577.473938,683.081726 
	C599.336060,667.642639 611.066284,645.771362 616.915344,620.345154 
	C622.684814,595.265137 620.208496,570.467712 613.451050,545.917358 
	C608.876770,529.298523 602.261169,513.538452 593.450928,498.724243 
	C591.958801,496.215363 591.620544,494.442902 594.300537,492.413116 
	C611.812683,479.149445 630.684326,468.499176 651.620911,461.577637 
	C655.530273,460.285187 656.984070,461.327667 657.817688,465.098511 
	C663.610718,491.303802 668.043335,517.695496 666.821228,544.642212 
	C665.230469,579.716736 656.989868,612.756897 634.887085,641.064575 
	C619.438416,660.850220 600.615845,676.301941 576.382690,685.025513 
	C575.993469,684.993286 575.970581,684.968750 575.970581,684.968750 
z"/>
<path fill="#94BAB5" opacity="1.000000" stroke="none" 
	d="
M187.810928,513.322510 
	C171.923843,503.476929 165.353958,488.269592 162.418320,471.214142 
	C159.371475,453.512543 161.648376,436.373779 170.340271,420.413513 
	C175.857910,410.281830 183.416519,402.220947 194.932999,399.093018 
	C209.567856,395.118103 224.769775,401.838226 233.898636,415.917480 
	C249.692749,440.276428 248.850891,477.336365 231.966461,500.974579 
	C220.972076,516.366821 204.500504,521.075500 187.810928,513.322510 
z"/>
<path fill="#CF959D" opacity="1.000000" stroke="none" 
	d="
M492.009033,684.991333 
	C492.461578,685.135681 492.902893,685.291748 493.344238,685.447876 
	C492.938904,685.469482 492.533600,685.491150 492.052704,685.270996 
	C491.977142,685.029175 491.997803,685.003113 492.009033,684.991333 
z"/>
<path fill="#CF959D" opacity="1.000000" stroke="none" 
	d="
M576.003418,685.006104 
	C575.539978,685.133362 575.066711,685.247864 574.593384,685.362366 
	C574.883728,685.220886 575.174011,685.079407 575.717468,684.953369 
	C575.970581,684.968750 575.993469,684.993286 576.003418,685.006104 
z"/>
</svg>